<mxfile host="Electron" agent="Mozilla/5.0 (Windows NT 10.0; Win64; x64) AppleWebKit/537.36 (KHTML, like Gecko) draw.io/27.0.9 Chrome/134.0.6998.205 Electron/35.4.0 Safari/537.36" version="27.0.9">
  <diagram name="Page-1" id="e4XxlPvHes2r8L3d206p">
    <mxGraphModel dx="4288" dy="2246" grid="1" gridSize="10" guides="1" tooltips="1" connect="1" arrows="1" fold="1" page="1" pageScale="1" pageWidth="827" pageHeight="1169" math="0" shadow="0">
      <root>
        <mxCell id="0" />
        <mxCell id="1" parent="0" />
        <mxCell id="jyMMwUtncCNAg7kbom-L-220" value="" style="rounded=0;whiteSpace=wrap;html=1;dashed=1;fillColor=none;" vertex="1" parent="1">
          <mxGeometry x="-1340" y="1650" width="1070" height="310" as="geometry" />
        </mxCell>
        <mxCell id="jyMMwUtncCNAg7kbom-L-100" value="" style="rounded=0;whiteSpace=wrap;html=1;dashed=1;fillColor=none;" vertex="1" parent="1">
          <mxGeometry x="-200" y="-120" width="200" height="770" as="geometry" />
        </mxCell>
        <mxCell id="jyMMwUtncCNAg7kbom-L-97" value="" style="rounded=0;whiteSpace=wrap;html=1;dashed=1;fillColor=none;" vertex="1" parent="1">
          <mxGeometry x="200" y="-115" width="760" height="760" as="geometry" />
        </mxCell>
        <mxCell id="jyMMwUtncCNAg7kbom-L-2" value="Patient Search Controller" style="rounded=1;whiteSpace=wrap;html=1;" vertex="1" parent="1">
          <mxGeometry x="-160" y="160" width="120" height="60" as="geometry" />
        </mxCell>
        <mxCell id="jyMMwUtncCNAg7kbom-L-10" style="edgeStyle=orthogonalEdgeStyle;rounded=0;orthogonalLoop=1;jettySize=auto;html=1;exitX=1;exitY=0.5;exitDx=0;exitDy=0;entryX=0;entryY=0.5;entryDx=0;entryDy=0;" edge="1" parent="1" source="jyMMwUtncCNAg7kbom-L-3" target="jyMMwUtncCNAg7kbom-L-4">
          <mxGeometry relative="1" as="geometry" />
        </mxCell>
        <mxCell id="jyMMwUtncCNAg7kbom-L-3" value="PDS Service" style="rounded=1;whiteSpace=wrap;html=1;" vertex="1" parent="1">
          <mxGeometry x="480" y="160" width="120" height="60" as="geometry" />
        </mxCell>
        <mxCell id="jyMMwUtncCNAg7kbom-L-11" style="edgeStyle=orthogonalEdgeStyle;rounded=0;orthogonalLoop=1;jettySize=auto;html=1;exitX=1;exitY=0.5;exitDx=0;exitDy=0;entryX=0;entryY=0.5;entryDx=0;entryDy=0;" edge="1" parent="1" source="jyMMwUtncCNAg7kbom-L-4" target="jyMMwUtncCNAg7kbom-L-5">
          <mxGeometry relative="1" as="geometry" />
        </mxCell>
        <mxCell id="jyMMwUtncCNAg7kbom-L-4" value="PDS Broker" style="rounded=1;whiteSpace=wrap;html=1;" vertex="1" parent="1">
          <mxGeometry x="640" y="160" width="120" height="60" as="geometry" />
        </mxCell>
        <mxCell id="jyMMwUtncCNAg7kbom-L-5" value="PDS Client" style="rounded=1;whiteSpace=wrap;html=1;" vertex="1" parent="1">
          <mxGeometry x="1040" y="160" width="120" height="60" as="geometry" />
        </mxCell>
        <mxCell id="jyMMwUtncCNAg7kbom-L-42" style="edgeStyle=orthogonalEdgeStyle;rounded=0;orthogonalLoop=1;jettySize=auto;html=1;exitX=1;exitY=0.5;exitDx=0;exitDy=0;entryX=0;entryY=0.5;entryDx=0;entryDy=0;" edge="1" parent="1" source="jyMMwUtncCNAg7kbom-L-43" target="jyMMwUtncCNAg7kbom-L-45">
          <mxGeometry relative="1" as="geometry" />
        </mxCell>
        <mxCell id="jyMMwUtncCNAg7kbom-L-43" value="Notification Service" style="rounded=1;whiteSpace=wrap;html=1;" vertex="1" parent="1">
          <mxGeometry x="480" y="80" width="120" height="60" as="geometry" />
        </mxCell>
        <mxCell id="jyMMwUtncCNAg7kbom-L-44" style="edgeStyle=orthogonalEdgeStyle;rounded=0;orthogonalLoop=1;jettySize=auto;html=1;exitX=1;exitY=0.5;exitDx=0;exitDy=0;entryX=0;entryY=0.5;entryDx=0;entryDy=0;" edge="1" parent="1" source="jyMMwUtncCNAg7kbom-L-45" target="jyMMwUtncCNAg7kbom-L-46">
          <mxGeometry relative="1" as="geometry" />
        </mxCell>
        <mxCell id="jyMMwUtncCNAg7kbom-L-45" value="Notification Broker" style="rounded=1;whiteSpace=wrap;html=1;" vertex="1" parent="1">
          <mxGeometry x="640" y="80" width="120" height="60" as="geometry" />
        </mxCell>
        <mxCell id="jyMMwUtncCNAg7kbom-L-46" value="GOV.Notify Client" style="rounded=1;whiteSpace=wrap;html=1;" vertex="1" parent="1">
          <mxGeometry x="1040" y="80" width="120" height="60" as="geometry" />
        </mxCell>
        <mxCell id="jyMMwUtncCNAg7kbom-L-53" style="edgeStyle=orthogonalEdgeStyle;rounded=0;orthogonalLoop=1;jettySize=auto;html=1;exitX=1;exitY=0.5;exitDx=0;exitDy=0;entryX=0;entryY=0.5;entryDx=0;entryDy=0;" edge="1" parent="1" source="jyMMwUtncCNAg7kbom-L-47" target="jyMMwUtncCNAg7kbom-L-43">
          <mxGeometry relative="1" as="geometry" />
        </mxCell>
        <mxCell id="jyMMwUtncCNAg7kbom-L-54" style="edgeStyle=orthogonalEdgeStyle;rounded=0;orthogonalLoop=1;jettySize=auto;html=1;exitX=1;exitY=0.5;exitDx=0;exitDy=0;entryX=0;entryY=0.5;entryDx=0;entryDy=0;" edge="1" parent="1" source="jyMMwUtncCNAg7kbom-L-47" target="jyMMwUtncCNAg7kbom-L-3">
          <mxGeometry relative="1" as="geometry" />
        </mxCell>
        <mxCell id="jyMMwUtncCNAg7kbom-L-55" style="edgeStyle=orthogonalEdgeStyle;rounded=0;orthogonalLoop=1;jettySize=auto;html=1;exitX=1;exitY=0.5;exitDx=0;exitDy=0;entryX=0;entryY=0.5;entryDx=0;entryDy=0;" edge="1" parent="1" source="jyMMwUtncCNAg7kbom-L-47" target="jyMMwUtncCNAg7kbom-L-49">
          <mxGeometry relative="1" as="geometry" />
        </mxCell>
        <mxCell id="jyMMwUtncCNAg7kbom-L-56" style="edgeStyle=orthogonalEdgeStyle;rounded=0;orthogonalLoop=1;jettySize=auto;html=1;exitX=0;exitY=0.5;exitDx=0;exitDy=0;entryX=1;entryY=0.5;entryDx=0;entryDy=0;" edge="1" parent="1" source="jyMMwUtncCNAg7kbom-L-47" target="jyMMwUtncCNAg7kbom-L-2">
          <mxGeometry relative="1" as="geometry">
            <mxPoint x="10" y="200" as="targetPoint" />
          </mxGeometry>
        </mxCell>
        <mxCell id="jyMMwUtncCNAg7kbom-L-47" value="Patient Orchestration" style="rounded=1;whiteSpace=wrap;html=1;" vertex="1" parent="1">
          <mxGeometry x="240" y="160" width="120" height="60" as="geometry" />
        </mxCell>
        <mxCell id="jyMMwUtncCNAg7kbom-L-48" style="edgeStyle=orthogonalEdgeStyle;rounded=0;orthogonalLoop=1;jettySize=auto;html=1;exitX=1;exitY=0.5;exitDx=0;exitDy=0;entryX=0;entryY=0.5;entryDx=0;entryDy=0;" edge="1" parent="1" source="jyMMwUtncCNAg7kbom-L-49" target="jyMMwUtncCNAg7kbom-L-50">
          <mxGeometry relative="1" as="geometry" />
        </mxCell>
        <mxCell id="jyMMwUtncCNAg7kbom-L-49" value="Patient Service" style="rounded=1;whiteSpace=wrap;html=1;" vertex="1" parent="1">
          <mxGeometry x="480" y="240" width="120" height="60" as="geometry" />
        </mxCell>
        <mxCell id="jyMMwUtncCNAg7kbom-L-50" value="Storage Broker" style="rounded=1;whiteSpace=wrap;html=1;" vertex="1" parent="1">
          <mxGeometry x="640" y="240" width="120" height="60" as="geometry" />
        </mxCell>
        <mxCell id="jyMMwUtncCNAg7kbom-L-51" value="SQL" style="shape=cylinder3;whiteSpace=wrap;html=1;boundedLbl=1;backgroundOutline=1;size=15;" vertex="1" parent="1">
          <mxGeometry x="800" y="240" width="80" height="60" as="geometry" />
        </mxCell>
        <mxCell id="jyMMwUtncCNAg7kbom-L-52" style="edgeStyle=orthogonalEdgeStyle;rounded=0;orthogonalLoop=1;jettySize=auto;html=1;exitX=1;exitY=0.5;exitDx=0;exitDy=0;entryX=0;entryY=0.5;entryDx=0;entryDy=0;entryPerimeter=0;" edge="1" parent="1" source="jyMMwUtncCNAg7kbom-L-50" target="jyMMwUtncCNAg7kbom-L-51">
          <mxGeometry relative="1" as="geometry" />
        </mxCell>
        <mxCell id="jyMMwUtncCNAg7kbom-L-64" style="edgeStyle=orthogonalEdgeStyle;rounded=0;orthogonalLoop=1;jettySize=auto;html=1;exitX=1;exitY=0.5;exitDx=0;exitDy=0;entryX=0;entryY=0.5;entryDx=0;entryDy=0;" edge="1" parent="1" source="jyMMwUtncCNAg7kbom-L-65" target="jyMMwUtncCNAg7kbom-L-66">
          <mxGeometry relative="1" as="geometry" />
        </mxCell>
        <mxCell id="jyMMwUtncCNAg7kbom-L-65" value="Patient Service" style="rounded=1;whiteSpace=wrap;html=1;" vertex="1" parent="1">
          <mxGeometry x="480" y="320" width="120" height="60" as="geometry" />
        </mxCell>
        <mxCell id="jyMMwUtncCNAg7kbom-L-66" value="Storage Broker" style="rounded=1;whiteSpace=wrap;html=1;" vertex="1" parent="1">
          <mxGeometry x="640" y="320" width="120" height="60" as="geometry" />
        </mxCell>
        <mxCell id="jyMMwUtncCNAg7kbom-L-67" value="SQL" style="shape=cylinder3;whiteSpace=wrap;html=1;boundedLbl=1;backgroundOutline=1;size=15;" vertex="1" parent="1">
          <mxGeometry x="800" y="320" width="80" height="60" as="geometry" />
        </mxCell>
        <mxCell id="jyMMwUtncCNAg7kbom-L-68" style="edgeStyle=orthogonalEdgeStyle;rounded=0;orthogonalLoop=1;jettySize=auto;html=1;exitX=1;exitY=0.5;exitDx=0;exitDy=0;entryX=0;entryY=0.5;entryDx=0;entryDy=0;entryPerimeter=0;" edge="1" parent="1" source="jyMMwUtncCNAg7kbom-L-66" target="jyMMwUtncCNAg7kbom-L-67">
          <mxGeometry relative="1" as="geometry" />
        </mxCell>
        <mxCell id="jyMMwUtncCNAg7kbom-L-69" style="edgeStyle=orthogonalEdgeStyle;rounded=0;orthogonalLoop=1;jettySize=auto;html=1;exitX=1;exitY=0.5;exitDx=0;exitDy=0;entryX=0;entryY=0.5;entryDx=0;entryDy=0;" edge="1" parent="1" source="jyMMwUtncCNAg7kbom-L-70" target="jyMMwUtncCNAg7kbom-L-71">
          <mxGeometry relative="1" as="geometry" />
        </mxCell>
        <mxCell id="jyMMwUtncCNAg7kbom-L-70" value="Decision Type Service" style="rounded=1;whiteSpace=wrap;html=1;" vertex="1" parent="1">
          <mxGeometry x="480" y="400" width="120" height="60" as="geometry" />
        </mxCell>
        <mxCell id="jyMMwUtncCNAg7kbom-L-71" value="Storage Broker" style="rounded=1;whiteSpace=wrap;html=1;" vertex="1" parent="1">
          <mxGeometry x="640" y="400" width="120" height="60" as="geometry" />
        </mxCell>
        <mxCell id="jyMMwUtncCNAg7kbom-L-72" value="SQL" style="shape=cylinder3;whiteSpace=wrap;html=1;boundedLbl=1;backgroundOutline=1;size=15;" vertex="1" parent="1">
          <mxGeometry x="800" y="400" width="80" height="60" as="geometry" />
        </mxCell>
        <mxCell id="jyMMwUtncCNAg7kbom-L-73" style="edgeStyle=orthogonalEdgeStyle;rounded=0;orthogonalLoop=1;jettySize=auto;html=1;exitX=1;exitY=0.5;exitDx=0;exitDy=0;entryX=0;entryY=0.5;entryDx=0;entryDy=0;entryPerimeter=0;" edge="1" parent="1" source="jyMMwUtncCNAg7kbom-L-71" target="jyMMwUtncCNAg7kbom-L-72">
          <mxGeometry relative="1" as="geometry" />
        </mxCell>
        <mxCell id="jyMMwUtncCNAg7kbom-L-74" style="edgeStyle=orthogonalEdgeStyle;rounded=0;orthogonalLoop=1;jettySize=auto;html=1;exitX=1;exitY=0.5;exitDx=0;exitDy=0;entryX=0;entryY=0.5;entryDx=0;entryDy=0;" edge="1" parent="1" source="jyMMwUtncCNAg7kbom-L-75" target="jyMMwUtncCNAg7kbom-L-76">
          <mxGeometry relative="1" as="geometry" />
        </mxCell>
        <mxCell id="jyMMwUtncCNAg7kbom-L-75" value="Decision Service" style="rounded=1;whiteSpace=wrap;html=1;" vertex="1" parent="1">
          <mxGeometry x="480" y="480" width="120" height="60" as="geometry" />
        </mxCell>
        <mxCell id="jyMMwUtncCNAg7kbom-L-76" value="Storage Broker" style="rounded=1;whiteSpace=wrap;html=1;" vertex="1" parent="1">
          <mxGeometry x="640" y="480" width="120" height="60" as="geometry" />
        </mxCell>
        <mxCell id="jyMMwUtncCNAg7kbom-L-77" value="SQL" style="shape=cylinder3;whiteSpace=wrap;html=1;boundedLbl=1;backgroundOutline=1;size=15;" vertex="1" parent="1">
          <mxGeometry x="800" y="480" width="80" height="60" as="geometry" />
        </mxCell>
        <mxCell id="jyMMwUtncCNAg7kbom-L-78" style="edgeStyle=orthogonalEdgeStyle;rounded=0;orthogonalLoop=1;jettySize=auto;html=1;exitX=1;exitY=0.5;exitDx=0;exitDy=0;entryX=0;entryY=0.5;entryDx=0;entryDy=0;entryPerimeter=0;" edge="1" parent="1" source="jyMMwUtncCNAg7kbom-L-76" target="jyMMwUtncCNAg7kbom-L-77">
          <mxGeometry relative="1" as="geometry" />
        </mxCell>
        <mxCell id="jyMMwUtncCNAg7kbom-L-82" style="edgeStyle=orthogonalEdgeStyle;rounded=0;orthogonalLoop=1;jettySize=auto;html=1;exitX=1;exitY=0.5;exitDx=0;exitDy=0;" edge="1" parent="1" source="jyMMwUtncCNAg7kbom-L-79" target="jyMMwUtncCNAg7kbom-L-65">
          <mxGeometry relative="1" as="geometry" />
        </mxCell>
        <mxCell id="jyMMwUtncCNAg7kbom-L-79" value="Patient Controller" style="rounded=1;whiteSpace=wrap;html=1;fillStyle=hatch;fillColor=#999999;" vertex="1" parent="1">
          <mxGeometry x="-160" y="320" width="120" height="60" as="geometry" />
        </mxCell>
        <mxCell id="jyMMwUtncCNAg7kbom-L-80" value="Descision Type Controller" style="rounded=1;whiteSpace=wrap;html=1;fillStyle=hatch;fillColor=#999999;" vertex="1" parent="1">
          <mxGeometry x="-160" y="400" width="120" height="60" as="geometry" />
        </mxCell>
        <mxCell id="jyMMwUtncCNAg7kbom-L-187" style="edgeStyle=orthogonalEdgeStyle;rounded=0;orthogonalLoop=1;jettySize=auto;html=1;exitX=1;exitY=0.5;exitDx=0;exitDy=0;entryX=0;entryY=0.5;entryDx=0;entryDy=0;" edge="1" parent="1" source="jyMMwUtncCNAg7kbom-L-81" target="jyMMwUtncCNAg7kbom-L-183">
          <mxGeometry relative="1" as="geometry" />
        </mxCell>
        <mxCell id="jyMMwUtncCNAg7kbom-L-81" value="Patient Descision Controller" style="rounded=1;whiteSpace=wrap;html=1;fillStyle=auto;fillColor=#FFFFFF;" vertex="1" parent="1">
          <mxGeometry x="-160" y="480" width="120" height="60" as="geometry" />
        </mxCell>
        <mxCell id="jyMMwUtncCNAg7kbom-L-99" value="IDecide Core" style="text;html=1;align=center;verticalAlign=middle;whiteSpace=wrap;rounded=0;" vertex="1" parent="1">
          <mxGeometry x="210" y="-110" width="120" height="30" as="geometry" />
        </mxCell>
        <mxCell id="jyMMwUtncCNAg7kbom-L-101" value="IDecide Portal" style="text;html=1;align=center;verticalAlign=middle;whiteSpace=wrap;rounded=0;" vertex="1" parent="1">
          <mxGeometry x="-200" y="-120" width="120" height="30" as="geometry" />
        </mxCell>
        <mxCell id="jyMMwUtncCNAg7kbom-L-102" value="" style="rounded=0;whiteSpace=wrap;html=1;dashed=1;fillColor=none;" vertex="1" parent="1">
          <mxGeometry x="-200" y="720" width="200" height="1400" as="geometry" />
        </mxCell>
        <mxCell id="jyMMwUtncCNAg7kbom-L-103" value="Patient Search Controller" style="rounded=1;whiteSpace=wrap;html=1;" vertex="1" parent="1">
          <mxGeometry x="-160" y="920" width="120" height="60" as="geometry" />
        </mxCell>
        <mxCell id="jyMMwUtncCNAg7kbom-L-179" style="edgeStyle=orthogonalEdgeStyle;rounded=0;orthogonalLoop=1;jettySize=auto;html=1;exitX=1;exitY=0.5;exitDx=0;exitDy=0;entryX=0;entryY=0.5;entryDx=0;entryDy=0;" edge="1" parent="1" source="jyMMwUtncCNAg7kbom-L-104" target="jyMMwUtncCNAg7kbom-L-163">
          <mxGeometry relative="1" as="geometry" />
        </mxCell>
        <mxCell id="jyMMwUtncCNAg7kbom-L-104" value="Patient Controller" style="rounded=1;whiteSpace=wrap;html=1;fillStyle=auto;fillColor=#FFFFFF;" vertex="1" parent="1">
          <mxGeometry x="-160" y="1080" width="120" height="60" as="geometry" />
        </mxCell>
        <mxCell id="jyMMwUtncCNAg7kbom-L-180" style="edgeStyle=orthogonalEdgeStyle;rounded=0;orthogonalLoop=1;jettySize=auto;html=1;exitX=1;exitY=0.5;exitDx=0;exitDy=0;entryX=0;entryY=0.5;entryDx=0;entryDy=0;" edge="1" parent="1" source="jyMMwUtncCNAg7kbom-L-105" target="jyMMwUtncCNAg7kbom-L-168">
          <mxGeometry relative="1" as="geometry" />
        </mxCell>
        <mxCell id="jyMMwUtncCNAg7kbom-L-105" value="Descision Type Controller" style="rounded=1;whiteSpace=wrap;html=1;fillStyle=auto;fillColor=#FFFFFF;" vertex="1" parent="1">
          <mxGeometry x="-160" y="1160" width="120" height="60" as="geometry" />
        </mxCell>
        <mxCell id="jyMMwUtncCNAg7kbom-L-181" style="edgeStyle=orthogonalEdgeStyle;rounded=0;orthogonalLoop=1;jettySize=auto;html=1;exitX=1;exitY=0.5;exitDx=0;exitDy=0;entryX=0;entryY=0.5;entryDx=0;entryDy=0;" edge="1" parent="1" source="jyMMwUtncCNAg7kbom-L-106" target="jyMMwUtncCNAg7kbom-L-173">
          <mxGeometry relative="1" as="geometry" />
        </mxCell>
        <mxCell id="jyMMwUtncCNAg7kbom-L-106" value="Descision Controller" style="rounded=1;whiteSpace=wrap;html=1;fillStyle=auto;fillColor=#FFFFFF;" vertex="1" parent="1">
          <mxGeometry x="-160" y="1240" width="120" height="60" as="geometry" />
        </mxCell>
        <mxCell id="jyMMwUtncCNAg7kbom-L-107" value="IDecide Management" style="text;html=1;align=center;verticalAlign=middle;whiteSpace=wrap;rounded=0;" vertex="1" parent="1">
          <mxGeometry x="-200" y="720" width="120" height="30" as="geometry" />
        </mxCell>
        <mxCell id="jyMMwUtncCNAg7kbom-L-113" value="" style="rounded=0;whiteSpace=wrap;html=1;dashed=1;fillColor=none;" vertex="1" parent="1">
          <mxGeometry x="200" y="720" width="760" height="1400" as="geometry" />
        </mxCell>
        <mxCell id="jyMMwUtncCNAg7kbom-L-114" style="edgeStyle=orthogonalEdgeStyle;rounded=0;orthogonalLoop=1;jettySize=auto;html=1;exitX=1;exitY=0.5;exitDx=0;exitDy=0;entryX=0;entryY=0.5;entryDx=0;entryDy=0;" edge="1" parent="1" source="jyMMwUtncCNAg7kbom-L-115" target="jyMMwUtncCNAg7kbom-L-117">
          <mxGeometry relative="1" as="geometry" />
        </mxCell>
        <mxCell id="jyMMwUtncCNAg7kbom-L-115" value="PDS Service" style="rounded=1;whiteSpace=wrap;html=1;" vertex="1" parent="1">
          <mxGeometry x="480" y="920" width="120" height="60" as="geometry" />
        </mxCell>
        <mxCell id="jyMMwUtncCNAg7kbom-L-116" style="edgeStyle=orthogonalEdgeStyle;rounded=0;orthogonalLoop=1;jettySize=auto;html=1;exitX=1;exitY=0.5;exitDx=0;exitDy=0;entryX=0;entryY=0.5;entryDx=0;entryDy=0;" edge="1" parent="1" source="jyMMwUtncCNAg7kbom-L-117" target="jyMMwUtncCNAg7kbom-L-118">
          <mxGeometry relative="1" as="geometry" />
        </mxCell>
        <mxCell id="jyMMwUtncCNAg7kbom-L-117" value="PDS Broker" style="rounded=1;whiteSpace=wrap;html=1;" vertex="1" parent="1">
          <mxGeometry x="640" y="920" width="120" height="60" as="geometry" />
        </mxCell>
        <mxCell id="jyMMwUtncCNAg7kbom-L-118" value="PDS Client" style="rounded=1;whiteSpace=wrap;html=1;" vertex="1" parent="1">
          <mxGeometry x="1040" y="920" width="120" height="60" as="geometry" />
        </mxCell>
        <mxCell id="jyMMwUtncCNAg7kbom-L-119" style="edgeStyle=orthogonalEdgeStyle;rounded=0;orthogonalLoop=1;jettySize=auto;html=1;exitX=1;exitY=0.5;exitDx=0;exitDy=0;entryX=0;entryY=0.5;entryDx=0;entryDy=0;" edge="1" parent="1" source="jyMMwUtncCNAg7kbom-L-120" target="jyMMwUtncCNAg7kbom-L-121">
          <mxGeometry relative="1" as="geometry" />
        </mxCell>
        <mxCell id="jyMMwUtncCNAg7kbom-L-120" value="Patient Service" style="rounded=1;whiteSpace=wrap;html=1;" vertex="1" parent="1">
          <mxGeometry x="480" y="1360" width="120" height="60" as="geometry" />
        </mxCell>
        <mxCell id="jyMMwUtncCNAg7kbom-L-121" value="Storage Broker" style="rounded=1;whiteSpace=wrap;html=1;" vertex="1" parent="1">
          <mxGeometry x="640" y="1360" width="120" height="60" as="geometry" />
        </mxCell>
        <mxCell id="jyMMwUtncCNAg7kbom-L-122" value="SQL" style="shape=cylinder3;whiteSpace=wrap;html=1;boundedLbl=1;backgroundOutline=1;size=15;" vertex="1" parent="1">
          <mxGeometry x="800" y="1360" width="80" height="60" as="geometry" />
        </mxCell>
        <mxCell id="jyMMwUtncCNAg7kbom-L-123" style="edgeStyle=orthogonalEdgeStyle;rounded=0;orthogonalLoop=1;jettySize=auto;html=1;exitX=1;exitY=0.5;exitDx=0;exitDy=0;entryX=0;entryY=0.5;entryDx=0;entryDy=0;entryPerimeter=0;" edge="1" parent="1" source="jyMMwUtncCNAg7kbom-L-121" target="jyMMwUtncCNAg7kbom-L-122">
          <mxGeometry relative="1" as="geometry" />
        </mxCell>
        <mxCell id="jyMMwUtncCNAg7kbom-L-124" style="edgeStyle=orthogonalEdgeStyle;rounded=0;orthogonalLoop=1;jettySize=auto;html=1;exitX=1;exitY=0.5;exitDx=0;exitDy=0;entryX=0;entryY=0.5;entryDx=0;entryDy=0;" edge="1" parent="1" source="jyMMwUtncCNAg7kbom-L-125" target="jyMMwUtncCNAg7kbom-L-126">
          <mxGeometry relative="1" as="geometry" />
        </mxCell>
        <mxCell id="jyMMwUtncCNAg7kbom-L-125" value="Decision Type Service" style="rounded=1;whiteSpace=wrap;html=1;" vertex="1" parent="1">
          <mxGeometry x="480" y="1440" width="120" height="60" as="geometry" />
        </mxCell>
        <mxCell id="jyMMwUtncCNAg7kbom-L-126" value="Storage Broker" style="rounded=1;whiteSpace=wrap;html=1;" vertex="1" parent="1">
          <mxGeometry x="640" y="1440" width="120" height="60" as="geometry" />
        </mxCell>
        <mxCell id="jyMMwUtncCNAg7kbom-L-127" value="SQL" style="shape=cylinder3;whiteSpace=wrap;html=1;boundedLbl=1;backgroundOutline=1;size=15;" vertex="1" parent="1">
          <mxGeometry x="800" y="1440" width="80" height="60" as="geometry" />
        </mxCell>
        <mxCell id="jyMMwUtncCNAg7kbom-L-128" style="edgeStyle=orthogonalEdgeStyle;rounded=0;orthogonalLoop=1;jettySize=auto;html=1;exitX=1;exitY=0.5;exitDx=0;exitDy=0;entryX=0;entryY=0.5;entryDx=0;entryDy=0;entryPerimeter=0;" edge="1" parent="1" source="jyMMwUtncCNAg7kbom-L-126" target="jyMMwUtncCNAg7kbom-L-127">
          <mxGeometry relative="1" as="geometry" />
        </mxCell>
        <mxCell id="jyMMwUtncCNAg7kbom-L-129" style="edgeStyle=orthogonalEdgeStyle;rounded=0;orthogonalLoop=1;jettySize=auto;html=1;exitX=1;exitY=0.5;exitDx=0;exitDy=0;entryX=0;entryY=0.5;entryDx=0;entryDy=0;" edge="1" parent="1" source="jyMMwUtncCNAg7kbom-L-130" target="jyMMwUtncCNAg7kbom-L-131">
          <mxGeometry relative="1" as="geometry" />
        </mxCell>
        <mxCell id="jyMMwUtncCNAg7kbom-L-130" value="Decision Service" style="rounded=1;whiteSpace=wrap;html=1;" vertex="1" parent="1">
          <mxGeometry x="480" y="1520" width="120" height="60" as="geometry" />
        </mxCell>
        <mxCell id="jyMMwUtncCNAg7kbom-L-131" value="Storage Broker" style="rounded=1;whiteSpace=wrap;html=1;" vertex="1" parent="1">
          <mxGeometry x="640" y="1520" width="120" height="60" as="geometry" />
        </mxCell>
        <mxCell id="jyMMwUtncCNAg7kbom-L-132" value="SQL" style="shape=cylinder3;whiteSpace=wrap;html=1;boundedLbl=1;backgroundOutline=1;size=15;" vertex="1" parent="1">
          <mxGeometry x="800" y="1520" width="80" height="60" as="geometry" />
        </mxCell>
        <mxCell id="jyMMwUtncCNAg7kbom-L-133" style="edgeStyle=orthogonalEdgeStyle;rounded=0;orthogonalLoop=1;jettySize=auto;html=1;exitX=1;exitY=0.5;exitDx=0;exitDy=0;entryX=0;entryY=0.5;entryDx=0;entryDy=0;entryPerimeter=0;" edge="1" parent="1" source="jyMMwUtncCNAg7kbom-L-131" target="jyMMwUtncCNAg7kbom-L-132">
          <mxGeometry relative="1" as="geometry" />
        </mxCell>
        <mxCell id="jyMMwUtncCNAg7kbom-L-134" style="edgeStyle=orthogonalEdgeStyle;rounded=0;orthogonalLoop=1;jettySize=auto;html=1;exitX=1;exitY=0.5;exitDx=0;exitDy=0;entryX=0;entryY=0.5;entryDx=0;entryDy=0;" edge="1" parent="1" source="jyMMwUtncCNAg7kbom-L-135" target="jyMMwUtncCNAg7kbom-L-137">
          <mxGeometry relative="1" as="geometry" />
        </mxCell>
        <mxCell id="jyMMwUtncCNAg7kbom-L-135" value="Consumer Status Service" style="rounded=1;whiteSpace=wrap;html=1;" vertex="1" parent="1">
          <mxGeometry x="480" y="1680" width="120" height="60" as="geometry" />
        </mxCell>
        <mxCell id="jyMMwUtncCNAg7kbom-L-136" style="edgeStyle=orthogonalEdgeStyle;rounded=0;orthogonalLoop=1;jettySize=auto;html=1;exitX=1;exitY=0.5;exitDx=0;exitDy=0;" edge="1" parent="1" source="jyMMwUtncCNAg7kbom-L-137" target="jyMMwUtncCNAg7kbom-L-138">
          <mxGeometry relative="1" as="geometry" />
        </mxCell>
        <mxCell id="jyMMwUtncCNAg7kbom-L-137" value="Storage Broker" style="rounded=1;whiteSpace=wrap;html=1;" vertex="1" parent="1">
          <mxGeometry x="640" y="1680" width="120" height="60" as="geometry" />
        </mxCell>
        <mxCell id="jyMMwUtncCNAg7kbom-L-138" value="SQL" style="shape=cylinder3;whiteSpace=wrap;html=1;boundedLbl=1;backgroundOutline=1;size=15;" vertex="1" parent="1">
          <mxGeometry x="800" y="1680" width="80" height="60" as="geometry" />
        </mxCell>
        <mxCell id="jyMMwUtncCNAg7kbom-L-139" style="edgeStyle=orthogonalEdgeStyle;rounded=0;orthogonalLoop=1;jettySize=auto;html=1;exitX=1;exitY=0.5;exitDx=0;exitDy=0;entryX=0;entryY=0.5;entryDx=0;entryDy=0;" edge="1" parent="1" source="jyMMwUtncCNAg7kbom-L-140" target="jyMMwUtncCNAg7kbom-L-141">
          <mxGeometry relative="1" as="geometry" />
        </mxCell>
        <mxCell id="jyMMwUtncCNAg7kbom-L-140" value="Consumer Service" style="rounded=1;whiteSpace=wrap;html=1;" vertex="1" parent="1">
          <mxGeometry x="480" y="2000" width="120" height="60" as="geometry" />
        </mxCell>
        <mxCell id="jyMMwUtncCNAg7kbom-L-141" value="Storage Broker" style="rounded=1;whiteSpace=wrap;html=1;" vertex="1" parent="1">
          <mxGeometry x="640" y="2000" width="120" height="60" as="geometry" />
        </mxCell>
        <mxCell id="jyMMwUtncCNAg7kbom-L-142" value="SQL" style="shape=cylinder3;whiteSpace=wrap;html=1;boundedLbl=1;backgroundOutline=1;size=15;" vertex="1" parent="1">
          <mxGeometry x="800" y="2000" width="80" height="60" as="geometry" />
        </mxCell>
        <mxCell id="jyMMwUtncCNAg7kbom-L-143" style="edgeStyle=orthogonalEdgeStyle;rounded=0;orthogonalLoop=1;jettySize=auto;html=1;exitX=1;exitY=0.5;exitDx=0;exitDy=0;entryX=0;entryY=0.5;entryDx=0;entryDy=0;entryPerimeter=0;" edge="1" parent="1" source="jyMMwUtncCNAg7kbom-L-141" target="jyMMwUtncCNAg7kbom-L-142">
          <mxGeometry relative="1" as="geometry" />
        </mxCell>
        <mxCell id="jyMMwUtncCNAg7kbom-L-144" style="edgeStyle=orthogonalEdgeStyle;rounded=0;orthogonalLoop=1;jettySize=auto;html=1;exitX=1;exitY=0.5;exitDx=0;exitDy=0;entryX=0;entryY=0.5;entryDx=0;entryDy=0;" edge="1" parent="1" source="jyMMwUtncCNAg7kbom-L-145" target="jyMMwUtncCNAg7kbom-L-147">
          <mxGeometry relative="1" as="geometry" />
        </mxCell>
        <mxCell id="jyMMwUtncCNAg7kbom-L-145" value="Notification Service" style="rounded=1;whiteSpace=wrap;html=1;" vertex="1" parent="1">
          <mxGeometry x="480" y="840" width="120" height="60" as="geometry" />
        </mxCell>
        <mxCell id="jyMMwUtncCNAg7kbom-L-146" style="edgeStyle=orthogonalEdgeStyle;rounded=0;orthogonalLoop=1;jettySize=auto;html=1;exitX=1;exitY=0.5;exitDx=0;exitDy=0;entryX=0;entryY=0.5;entryDx=0;entryDy=0;" edge="1" parent="1" source="jyMMwUtncCNAg7kbom-L-147" target="jyMMwUtncCNAg7kbom-L-148">
          <mxGeometry relative="1" as="geometry" />
        </mxCell>
        <mxCell id="jyMMwUtncCNAg7kbom-L-147" value="Notification Broker" style="rounded=1;whiteSpace=wrap;html=1;" vertex="1" parent="1">
          <mxGeometry x="640" y="840" width="120" height="60" as="geometry" />
        </mxCell>
        <mxCell id="jyMMwUtncCNAg7kbom-L-148" value="GOV.Notify Client" style="rounded=1;whiteSpace=wrap;html=1;" vertex="1" parent="1">
          <mxGeometry x="1040" y="840" width="120" height="60" as="geometry" />
        </mxCell>
        <mxCell id="jyMMwUtncCNAg7kbom-L-149" style="edgeStyle=orthogonalEdgeStyle;rounded=0;orthogonalLoop=1;jettySize=auto;html=1;exitX=1;exitY=0.5;exitDx=0;exitDy=0;entryX=0;entryY=0.5;entryDx=0;entryDy=0;" edge="1" parent="1" source="jyMMwUtncCNAg7kbom-L-152" target="jyMMwUtncCNAg7kbom-L-145">
          <mxGeometry relative="1" as="geometry" />
        </mxCell>
        <mxCell id="jyMMwUtncCNAg7kbom-L-150" style="edgeStyle=orthogonalEdgeStyle;rounded=0;orthogonalLoop=1;jettySize=auto;html=1;exitX=1;exitY=0.5;exitDx=0;exitDy=0;entryX=0;entryY=0.5;entryDx=0;entryDy=0;" edge="1" parent="1" source="jyMMwUtncCNAg7kbom-L-152" target="jyMMwUtncCNAg7kbom-L-115">
          <mxGeometry relative="1" as="geometry" />
        </mxCell>
        <mxCell id="jyMMwUtncCNAg7kbom-L-151" style="edgeStyle=orthogonalEdgeStyle;rounded=0;orthogonalLoop=1;jettySize=auto;html=1;exitX=1;exitY=0.5;exitDx=0;exitDy=0;entryX=0;entryY=0.5;entryDx=0;entryDy=0;" edge="1" parent="1" source="jyMMwUtncCNAg7kbom-L-152" target="jyMMwUtncCNAg7kbom-L-154">
          <mxGeometry relative="1" as="geometry" />
        </mxCell>
        <mxCell id="jyMMwUtncCNAg7kbom-L-178" style="edgeStyle=orthogonalEdgeStyle;rounded=0;orthogonalLoop=1;jettySize=auto;html=1;exitX=0;exitY=0.5;exitDx=0;exitDy=0;" edge="1" parent="1" source="jyMMwUtncCNAg7kbom-L-152" target="jyMMwUtncCNAg7kbom-L-103">
          <mxGeometry relative="1" as="geometry" />
        </mxCell>
        <mxCell id="jyMMwUtncCNAg7kbom-L-152" value="Patient Orchestration" style="rounded=1;whiteSpace=wrap;html=1;" vertex="1" parent="1">
          <mxGeometry x="240" y="920" width="120" height="60" as="geometry" />
        </mxCell>
        <mxCell id="jyMMwUtncCNAg7kbom-L-153" style="edgeStyle=orthogonalEdgeStyle;rounded=0;orthogonalLoop=1;jettySize=auto;html=1;exitX=1;exitY=0.5;exitDx=0;exitDy=0;entryX=0;entryY=0.5;entryDx=0;entryDy=0;" edge="1" parent="1" source="jyMMwUtncCNAg7kbom-L-154" target="jyMMwUtncCNAg7kbom-L-155">
          <mxGeometry relative="1" as="geometry" />
        </mxCell>
        <mxCell id="jyMMwUtncCNAg7kbom-L-154" value="Patient Service" style="rounded=1;whiteSpace=wrap;html=1;" vertex="1" parent="1">
          <mxGeometry x="480" y="1000" width="120" height="60" as="geometry" />
        </mxCell>
        <mxCell id="jyMMwUtncCNAg7kbom-L-155" value="Storage Broker" style="rounded=1;whiteSpace=wrap;html=1;" vertex="1" parent="1">
          <mxGeometry x="640" y="1000" width="120" height="60" as="geometry" />
        </mxCell>
        <mxCell id="jyMMwUtncCNAg7kbom-L-156" value="SQL" style="shape=cylinder3;whiteSpace=wrap;html=1;boundedLbl=1;backgroundOutline=1;size=15;" vertex="1" parent="1">
          <mxGeometry x="800" y="1000" width="80" height="60" as="geometry" />
        </mxCell>
        <mxCell id="jyMMwUtncCNAg7kbom-L-157" style="edgeStyle=orthogonalEdgeStyle;rounded=0;orthogonalLoop=1;jettySize=auto;html=1;exitX=1;exitY=0.5;exitDx=0;exitDy=0;entryX=0;entryY=0.5;entryDx=0;entryDy=0;entryPerimeter=0;" edge="1" parent="1" source="jyMMwUtncCNAg7kbom-L-155" target="jyMMwUtncCNAg7kbom-L-156">
          <mxGeometry relative="1" as="geometry" />
        </mxCell>
        <mxCell id="jyMMwUtncCNAg7kbom-L-158" style="edgeStyle=orthogonalEdgeStyle;rounded=0;orthogonalLoop=1;jettySize=auto;html=1;exitX=1;exitY=0.5;exitDx=0;exitDy=0;entryX=0;entryY=0.5;entryDx=0;entryDy=0;" edge="1" parent="1" source="jyMMwUtncCNAg7kbom-L-161" target="jyMMwUtncCNAg7kbom-L-120">
          <mxGeometry relative="1" as="geometry" />
        </mxCell>
        <mxCell id="jyMMwUtncCNAg7kbom-L-159" style="edgeStyle=orthogonalEdgeStyle;rounded=0;orthogonalLoop=1;jettySize=auto;html=1;exitX=1;exitY=0.5;exitDx=0;exitDy=0;entryX=0;entryY=0.5;entryDx=0;entryDy=0;" edge="1" parent="1" source="jyMMwUtncCNAg7kbom-L-161" target="jyMMwUtncCNAg7kbom-L-125">
          <mxGeometry relative="1" as="geometry" />
        </mxCell>
        <mxCell id="jyMMwUtncCNAg7kbom-L-160" style="edgeStyle=orthogonalEdgeStyle;rounded=0;orthogonalLoop=1;jettySize=auto;html=1;exitX=1;exitY=0.5;exitDx=0;exitDy=0;entryX=0;entryY=0.5;entryDx=0;entryDy=0;" edge="1" parent="1" source="jyMMwUtncCNAg7kbom-L-161" target="jyMMwUtncCNAg7kbom-L-130">
          <mxGeometry relative="1" as="geometry" />
        </mxCell>
        <mxCell id="jyMMwUtncCNAg7kbom-L-161" value="Descision Orchestration" style="rounded=1;whiteSpace=wrap;html=1;" vertex="1" parent="1">
          <mxGeometry x="240" y="1440" width="120" height="60" as="geometry" />
        </mxCell>
        <mxCell id="jyMMwUtncCNAg7kbom-L-162" style="edgeStyle=orthogonalEdgeStyle;rounded=0;orthogonalLoop=1;jettySize=auto;html=1;exitX=1;exitY=0.5;exitDx=0;exitDy=0;entryX=0;entryY=0.5;entryDx=0;entryDy=0;" edge="1" parent="1" source="jyMMwUtncCNAg7kbom-L-163" target="jyMMwUtncCNAg7kbom-L-164">
          <mxGeometry relative="1" as="geometry" />
        </mxCell>
        <mxCell id="jyMMwUtncCNAg7kbom-L-163" value="Patient Service" style="rounded=1;whiteSpace=wrap;html=1;" vertex="1" parent="1">
          <mxGeometry x="480" y="1080" width="120" height="60" as="geometry" />
        </mxCell>
        <mxCell id="jyMMwUtncCNAg7kbom-L-164" value="Storage Broker" style="rounded=1;whiteSpace=wrap;html=1;" vertex="1" parent="1">
          <mxGeometry x="640" y="1080" width="120" height="60" as="geometry" />
        </mxCell>
        <mxCell id="jyMMwUtncCNAg7kbom-L-165" value="SQL" style="shape=cylinder3;whiteSpace=wrap;html=1;boundedLbl=1;backgroundOutline=1;size=15;" vertex="1" parent="1">
          <mxGeometry x="800" y="1080" width="80" height="60" as="geometry" />
        </mxCell>
        <mxCell id="jyMMwUtncCNAg7kbom-L-166" style="edgeStyle=orthogonalEdgeStyle;rounded=0;orthogonalLoop=1;jettySize=auto;html=1;exitX=1;exitY=0.5;exitDx=0;exitDy=0;entryX=0;entryY=0.5;entryDx=0;entryDy=0;entryPerimeter=0;" edge="1" parent="1" source="jyMMwUtncCNAg7kbom-L-164" target="jyMMwUtncCNAg7kbom-L-165">
          <mxGeometry relative="1" as="geometry" />
        </mxCell>
        <mxCell id="jyMMwUtncCNAg7kbom-L-167" style="edgeStyle=orthogonalEdgeStyle;rounded=0;orthogonalLoop=1;jettySize=auto;html=1;exitX=1;exitY=0.5;exitDx=0;exitDy=0;entryX=0;entryY=0.5;entryDx=0;entryDy=0;" edge="1" parent="1" source="jyMMwUtncCNAg7kbom-L-168" target="jyMMwUtncCNAg7kbom-L-169">
          <mxGeometry relative="1" as="geometry" />
        </mxCell>
        <mxCell id="jyMMwUtncCNAg7kbom-L-168" value="Decision Type Service" style="rounded=1;whiteSpace=wrap;html=1;" vertex="1" parent="1">
          <mxGeometry x="480" y="1160" width="120" height="60" as="geometry" />
        </mxCell>
        <mxCell id="jyMMwUtncCNAg7kbom-L-169" value="Storage Broker" style="rounded=1;whiteSpace=wrap;html=1;" vertex="1" parent="1">
          <mxGeometry x="640" y="1160" width="120" height="60" as="geometry" />
        </mxCell>
        <mxCell id="jyMMwUtncCNAg7kbom-L-170" value="SQL" style="shape=cylinder3;whiteSpace=wrap;html=1;boundedLbl=1;backgroundOutline=1;size=15;" vertex="1" parent="1">
          <mxGeometry x="800" y="1160" width="80" height="60" as="geometry" />
        </mxCell>
        <mxCell id="jyMMwUtncCNAg7kbom-L-171" style="edgeStyle=orthogonalEdgeStyle;rounded=0;orthogonalLoop=1;jettySize=auto;html=1;exitX=1;exitY=0.5;exitDx=0;exitDy=0;entryX=0;entryY=0.5;entryDx=0;entryDy=0;entryPerimeter=0;" edge="1" parent="1" source="jyMMwUtncCNAg7kbom-L-169" target="jyMMwUtncCNAg7kbom-L-170">
          <mxGeometry relative="1" as="geometry" />
        </mxCell>
        <mxCell id="jyMMwUtncCNAg7kbom-L-172" style="edgeStyle=orthogonalEdgeStyle;rounded=0;orthogonalLoop=1;jettySize=auto;html=1;exitX=1;exitY=0.5;exitDx=0;exitDy=0;entryX=0;entryY=0.5;entryDx=0;entryDy=0;" edge="1" parent="1" source="jyMMwUtncCNAg7kbom-L-173" target="jyMMwUtncCNAg7kbom-L-174">
          <mxGeometry relative="1" as="geometry" />
        </mxCell>
        <mxCell id="jyMMwUtncCNAg7kbom-L-173" value="Decision Service" style="rounded=1;whiteSpace=wrap;html=1;" vertex="1" parent="1">
          <mxGeometry x="480" y="1240" width="120" height="60" as="geometry" />
        </mxCell>
        <mxCell id="jyMMwUtncCNAg7kbom-L-174" value="Storage Broker" style="rounded=1;whiteSpace=wrap;html=1;" vertex="1" parent="1">
          <mxGeometry x="640" y="1240" width="120" height="60" as="geometry" />
        </mxCell>
        <mxCell id="jyMMwUtncCNAg7kbom-L-175" value="SQL" style="shape=cylinder3;whiteSpace=wrap;html=1;boundedLbl=1;backgroundOutline=1;size=15;" vertex="1" parent="1">
          <mxGeometry x="800" y="1240" width="80" height="60" as="geometry" />
        </mxCell>
        <mxCell id="jyMMwUtncCNAg7kbom-L-176" style="edgeStyle=orthogonalEdgeStyle;rounded=0;orthogonalLoop=1;jettySize=auto;html=1;exitX=1;exitY=0.5;exitDx=0;exitDy=0;entryX=0;entryY=0.5;entryDx=0;entryDy=0;entryPerimeter=0;" edge="1" parent="1" source="jyMMwUtncCNAg7kbom-L-174" target="jyMMwUtncCNAg7kbom-L-175">
          <mxGeometry relative="1" as="geometry" />
        </mxCell>
        <mxCell id="jyMMwUtncCNAg7kbom-L-177" value="IDecide Core" style="text;html=1;align=center;verticalAlign=middle;whiteSpace=wrap;rounded=0;" vertex="1" parent="1">
          <mxGeometry x="200" y="720" width="120" height="30" as="geometry" />
        </mxCell>
        <mxCell id="jyMMwUtncCNAg7kbom-L-190" style="edgeStyle=orthogonalEdgeStyle;rounded=0;orthogonalLoop=1;jettySize=auto;html=1;exitX=1;exitY=0.5;exitDx=0;exitDy=0;entryX=0;entryY=0.5;entryDx=0;entryDy=0;" edge="1" parent="1" source="jyMMwUtncCNAg7kbom-L-182" target="jyMMwUtncCNAg7kbom-L-161">
          <mxGeometry relative="1" as="geometry" />
        </mxCell>
        <mxCell id="jyMMwUtncCNAg7kbom-L-182" value="Patient Descision Controller" style="rounded=1;whiteSpace=wrap;html=1;" vertex="1" parent="1">
          <mxGeometry x="-160" y="1440" width="120" height="60" as="geometry" />
        </mxCell>
        <mxCell id="jyMMwUtncCNAg7kbom-L-184" style="edgeStyle=orthogonalEdgeStyle;rounded=0;orthogonalLoop=1;jettySize=auto;html=1;exitX=1;exitY=0.5;exitDx=0;exitDy=0;entryX=0;entryY=0.5;entryDx=0;entryDy=0;" edge="1" parent="1" source="jyMMwUtncCNAg7kbom-L-183" target="jyMMwUtncCNAg7kbom-L-65">
          <mxGeometry relative="1" as="geometry" />
        </mxCell>
        <mxCell id="jyMMwUtncCNAg7kbom-L-185" style="edgeStyle=orthogonalEdgeStyle;rounded=0;orthogonalLoop=1;jettySize=auto;html=1;exitX=1;exitY=0.5;exitDx=0;exitDy=0;entryX=0;entryY=0.5;entryDx=0;entryDy=0;" edge="1" parent="1" source="jyMMwUtncCNAg7kbom-L-183" target="jyMMwUtncCNAg7kbom-L-70">
          <mxGeometry relative="1" as="geometry" />
        </mxCell>
        <mxCell id="jyMMwUtncCNAg7kbom-L-186" style="edgeStyle=orthogonalEdgeStyle;rounded=0;orthogonalLoop=1;jettySize=auto;html=1;exitX=1;exitY=0.5;exitDx=0;exitDy=0;entryX=0;entryY=0.5;entryDx=0;entryDy=0;" edge="1" parent="1" source="jyMMwUtncCNAg7kbom-L-183" target="jyMMwUtncCNAg7kbom-L-75">
          <mxGeometry relative="1" as="geometry" />
        </mxCell>
        <mxCell id="jyMMwUtncCNAg7kbom-L-183" value="Descision Orchestration" style="rounded=1;whiteSpace=wrap;html=1;" vertex="1" parent="1">
          <mxGeometry x="240" y="480" width="120" height="60" as="geometry" />
        </mxCell>
        <mxCell id="jyMMwUtncCNAg7kbom-L-189" style="edgeStyle=orthogonalEdgeStyle;rounded=0;orthogonalLoop=1;jettySize=auto;html=1;exitX=1;exitY=0.5;exitDx=0;exitDy=0;entryX=0.5;entryY=1;entryDx=0;entryDy=0;" edge="1" parent="1" source="jyMMwUtncCNAg7kbom-L-188" target="jyMMwUtncCNAg7kbom-L-75">
          <mxGeometry relative="1" as="geometry" />
        </mxCell>
        <mxCell id="jyMMwUtncCNAg7kbom-L-188" value="Descision Controller" style="rounded=1;whiteSpace=wrap;html=1;fillStyle=hatch;fillColor=#999999;" vertex="1" parent="1">
          <mxGeometry x="-160" y="560" width="120" height="60" as="geometry" />
        </mxCell>
        <mxCell id="jyMMwUtncCNAg7kbom-L-241" style="edgeStyle=orthogonalEdgeStyle;rounded=0;orthogonalLoop=1;jettySize=auto;html=1;exitX=1;exitY=0.5;exitDx=0;exitDy=0;entryX=0;entryY=0.5;entryDx=0;entryDy=0;" edge="1" parent="1" source="jyMMwUtncCNAg7kbom-L-191" target="jyMMwUtncCNAg7kbom-L-229">
          <mxGeometry relative="1" as="geometry" />
        </mxCell>
        <mxCell id="jyMMwUtncCNAg7kbom-L-191" value="Consumer Status Controller" style="rounded=1;whiteSpace=wrap;html=1;" vertex="1" parent="1">
          <mxGeometry x="-160" y="1760" width="120" height="60" as="geometry" />
        </mxCell>
        <mxCell id="jyMMwUtncCNAg7kbom-L-194" style="edgeStyle=orthogonalEdgeStyle;rounded=0;orthogonalLoop=1;jettySize=auto;html=1;exitX=1;exitY=0.5;exitDx=0;exitDy=0;entryX=0;entryY=0.5;entryDx=0;entryDy=0;" edge="1" parent="1" source="jyMMwUtncCNAg7kbom-L-192" target="jyMMwUtncCNAg7kbom-L-140">
          <mxGeometry relative="1" as="geometry" />
        </mxCell>
        <mxCell id="jyMMwUtncCNAg7kbom-L-192" value="Consumer Controller" style="rounded=1;whiteSpace=wrap;html=1;" vertex="1" parent="1">
          <mxGeometry x="-160" y="2000" width="120" height="60" as="geometry" />
        </mxCell>
        <mxCell id="jyMMwUtncCNAg7kbom-L-201" style="edgeStyle=orthogonalEdgeStyle;rounded=0;orthogonalLoop=1;jettySize=auto;html=1;exitX=1;exitY=0.5;exitDx=0;exitDy=0;entryX=0;entryY=0.5;entryDx=0;entryDy=0;" edge="1" parent="1" source="jyMMwUtncCNAg7kbom-L-196" target="jyMMwUtncCNAg7kbom-L-200">
          <mxGeometry relative="1" as="geometry" />
        </mxCell>
        <mxCell id="jyMMwUtncCNAg7kbom-L-196" value="Audit Broker" style="rounded=1;whiteSpace=wrap;html=1;" vertex="1" parent="1">
          <mxGeometry x="640" y="-40" width="120" height="60" as="geometry" />
        </mxCell>
        <mxCell id="jyMMwUtncCNAg7kbom-L-198" value="Audit Broker" style="rounded=1;whiteSpace=wrap;html=1;" vertex="1" parent="1">
          <mxGeometry x="640" y="760" width="120" height="60" as="geometry" />
        </mxCell>
        <mxCell id="jyMMwUtncCNAg7kbom-L-200" value="Audit Client" style="rounded=1;whiteSpace=wrap;html=1;" vertex="1" parent="1">
          <mxGeometry x="1040" y="-40" width="120" height="60" as="geometry" />
        </mxCell>
        <mxCell id="jyMMwUtncCNAg7kbom-L-202" style="edgeStyle=orthogonalEdgeStyle;rounded=0;orthogonalLoop=1;jettySize=auto;html=1;exitX=1;exitY=0.5;exitDx=0;exitDy=0;entryX=0;entryY=0.5;entryDx=0;entryDy=0;" edge="1" parent="1" target="jyMMwUtncCNAg7kbom-L-203" source="jyMMwUtncCNAg7kbom-L-198">
          <mxGeometry relative="1" as="geometry">
            <mxPoint x="760" y="790" as="sourcePoint" />
          </mxGeometry>
        </mxCell>
        <mxCell id="jyMMwUtncCNAg7kbom-L-203" value="Audit Client" style="rounded=1;whiteSpace=wrap;html=1;" vertex="1" parent="1">
          <mxGeometry x="1040" y="760" width="120" height="60" as="geometry" />
        </mxCell>
        <mxCell id="jyMMwUtncCNAg7kbom-L-204" value="" style="image;aspect=fixed;html=1;points=[];align=center;fontSize=12;image=img/lib/azure2/compute/Function_Apps.svg;" vertex="1" parent="1">
          <mxGeometry x="-370" y="1760" width="68" height="60" as="geometry" />
        </mxCell>
        <mxCell id="jyMMwUtncCNAg7kbom-L-213" style="edgeStyle=orthogonalEdgeStyle;rounded=0;orthogonalLoop=1;jettySize=auto;html=1;exitX=0;exitY=0.5;exitDx=0;exitDy=0;entryX=1;entryY=0.5;entryDx=0;entryDy=0;" edge="1" parent="1" source="jyMMwUtncCNAg7kbom-L-207" target="jyMMwUtncCNAg7kbom-L-209">
          <mxGeometry relative="1" as="geometry" />
        </mxCell>
        <mxCell id="jyMMwUtncCNAg7kbom-L-207" value="LDS IDecide Client" style="rounded=1;whiteSpace=wrap;html=1;" vertex="1" parent="1">
          <mxGeometry x="-560" y="1760" width="120" height="60" as="geometry" />
        </mxCell>
        <mxCell id="jyMMwUtncCNAg7kbom-L-208" style="edgeStyle=orthogonalEdgeStyle;rounded=0;orthogonalLoop=1;jettySize=auto;html=1;exitX=1;exitY=0.5;exitDx=0;exitDy=0;entryX=0.147;entryY=0.5;entryDx=0;entryDy=0;entryPerimeter=0;" edge="1" parent="1" source="jyMMwUtncCNAg7kbom-L-207" target="jyMMwUtncCNAg7kbom-L-204">
          <mxGeometry relative="1" as="geometry" />
        </mxCell>
        <mxCell id="jyMMwUtncCNAg7kbom-L-214" style="edgeStyle=orthogonalEdgeStyle;rounded=0;orthogonalLoop=1;jettySize=auto;html=1;exitX=0;exitY=0.5;exitDx=0;exitDy=0;entryX=1;entryY=0.5;entryDx=0;entryDy=0;" edge="1" parent="1" source="jyMMwUtncCNAg7kbom-L-209" target="jyMMwUtncCNAg7kbom-L-210">
          <mxGeometry relative="1" as="geometry" />
        </mxCell>
        <mxCell id="jyMMwUtncCNAg7kbom-L-215" style="edgeStyle=orthogonalEdgeStyle;rounded=0;orthogonalLoop=1;jettySize=auto;html=1;exitX=0;exitY=0.5;exitDx=0;exitDy=0;entryX=1;entryY=0.5;entryDx=0;entryDy=0;" edge="1" parent="1" source="jyMMwUtncCNAg7kbom-L-209" target="jyMMwUtncCNAg7kbom-L-211">
          <mxGeometry relative="1" as="geometry" />
        </mxCell>
        <mxCell id="jyMMwUtncCNAg7kbom-L-209" value="Decision Orchestration" style="rounded=1;whiteSpace=wrap;html=1;" vertex="1" parent="1">
          <mxGeometry x="-760" y="1760" width="120" height="60" as="geometry" />
        </mxCell>
        <mxCell id="jyMMwUtncCNAg7kbom-L-210" value="CSV Mapper Service" style="rounded=1;whiteSpace=wrap;html=1;" vertex="1" parent="1">
          <mxGeometry x="-920" y="1712" width="120" height="60" as="geometry" />
        </mxCell>
        <mxCell id="jyMMwUtncCNAg7kbom-L-216" style="edgeStyle=orthogonalEdgeStyle;rounded=0;orthogonalLoop=1;jettySize=auto;html=1;exitX=0;exitY=0.5;exitDx=0;exitDy=0;entryX=1;entryY=0.5;entryDx=0;entryDy=0;" edge="1" parent="1" source="jyMMwUtncCNAg7kbom-L-211" target="jyMMwUtncCNAg7kbom-L-212">
          <mxGeometry relative="1" as="geometry" />
        </mxCell>
        <mxCell id="jyMMwUtncCNAg7kbom-L-211" value="Blob Storage Service" style="rounded=1;whiteSpace=wrap;html=1;" vertex="1" parent="1">
          <mxGeometry x="-920" y="1800" width="120" height="60" as="geometry" />
        </mxCell>
        <mxCell id="jyMMwUtncCNAg7kbom-L-219" style="edgeStyle=orthogonalEdgeStyle;rounded=0;orthogonalLoop=1;jettySize=auto;html=1;exitX=0;exitY=0.5;exitDx=0;exitDy=0;" edge="1" parent="1" source="jyMMwUtncCNAg7kbom-L-212" target="jyMMwUtncCNAg7kbom-L-218">
          <mxGeometry relative="1" as="geometry" />
        </mxCell>
        <mxCell id="jyMMwUtncCNAg7kbom-L-212" value="Blob Storage Broker" style="rounded=1;whiteSpace=wrap;html=1;" vertex="1" parent="1">
          <mxGeometry x="-1080" y="1800" width="120" height="60" as="geometry" />
        </mxCell>
        <mxCell id="jyMMwUtncCNAg7kbom-L-218" value="" style="sketch=0;pointerEvents=1;shadow=0;dashed=0;html=1;strokeColor=none;fillColor=#DF8C42;labelPosition=center;verticalLabelPosition=bottom;verticalAlign=top;align=center;outlineConnect=0;shape=mxgraph.veeam2.azure_blob;" vertex="1" parent="1">
          <mxGeometry x="-1280" y="1800" width="130" height="60" as="geometry" />
        </mxCell>
        <mxCell id="jyMMwUtncCNAg7kbom-L-221" value="LDS Scheduled / Polling Function" style="text;html=1;align=center;verticalAlign=middle;whiteSpace=wrap;rounded=0;" vertex="1" parent="1">
          <mxGeometry x="-1340" y="1650" width="210" height="30" as="geometry" />
        </mxCell>
        <mxCell id="jyMMwUtncCNAg7kbom-L-222" style="edgeStyle=orthogonalEdgeStyle;rounded=0;orthogonalLoop=1;jettySize=auto;html=1;exitX=0;exitY=0.5;exitDx=0;exitDy=0;entryX=0.882;entryY=0.5;entryDx=0;entryDy=0;entryPerimeter=0;dashed=1;dashPattern=8 8;startArrow=classic;startFill=1;" edge="1" parent="1" source="jyMMwUtncCNAg7kbom-L-191" target="jyMMwUtncCNAg7kbom-L-204">
          <mxGeometry relative="1" as="geometry" />
        </mxCell>
        <mxCell id="jyMMwUtncCNAg7kbom-L-239" style="edgeStyle=orthogonalEdgeStyle;rounded=0;orthogonalLoop=1;jettySize=auto;html=1;exitX=1;exitY=0.5;exitDx=0;exitDy=0;entryX=0;entryY=0.5;entryDx=0;entryDy=0;" edge="1" parent="1" source="jyMMwUtncCNAg7kbom-L-226" target="jyMMwUtncCNAg7kbom-L-227">
          <mxGeometry relative="1" as="geometry" />
        </mxCell>
        <mxCell id="jyMMwUtncCNAg7kbom-L-226" value="Notification Service" style="rounded=1;whiteSpace=wrap;html=1;" vertex="1" parent="1">
          <mxGeometry x="480" y="1760" width="120" height="60" as="geometry" />
        </mxCell>
        <mxCell id="jyMMwUtncCNAg7kbom-L-240" style="edgeStyle=orthogonalEdgeStyle;rounded=0;orthogonalLoop=1;jettySize=auto;html=1;exitX=1;exitY=0.5;exitDx=0;exitDy=0;entryX=0;entryY=0.5;entryDx=0;entryDy=0;" edge="1" parent="1" source="jyMMwUtncCNAg7kbom-L-227" target="jyMMwUtncCNAg7kbom-L-228">
          <mxGeometry relative="1" as="geometry" />
        </mxCell>
        <mxCell id="jyMMwUtncCNAg7kbom-L-227" value="Notification Broker" style="rounded=1;whiteSpace=wrap;html=1;" vertex="1" parent="1">
          <mxGeometry x="640" y="1760" width="120" height="60" as="geometry" />
        </mxCell>
        <mxCell id="jyMMwUtncCNAg7kbom-L-228" value="GOV.Notify Client" style="rounded=1;whiteSpace=wrap;html=1;" vertex="1" parent="1">
          <mxGeometry x="1040" y="1760" width="120" height="60" as="geometry" />
        </mxCell>
        <mxCell id="jyMMwUtncCNAg7kbom-L-230" style="edgeStyle=orthogonalEdgeStyle;rounded=0;orthogonalLoop=1;jettySize=auto;html=1;exitX=1;exitY=0.5;exitDx=0;exitDy=0;entryX=0;entryY=0.5;entryDx=0;entryDy=0;" edge="1" parent="1" source="jyMMwUtncCNAg7kbom-L-229" target="jyMMwUtncCNAg7kbom-L-135">
          <mxGeometry relative="1" as="geometry" />
        </mxCell>
        <mxCell id="jyMMwUtncCNAg7kbom-L-231" style="edgeStyle=orthogonalEdgeStyle;rounded=0;orthogonalLoop=1;jettySize=auto;html=1;exitX=1;exitY=0.5;exitDx=0;exitDy=0;entryX=0;entryY=0.5;entryDx=0;entryDy=0;" edge="1" parent="1" source="jyMMwUtncCNAg7kbom-L-229" target="jyMMwUtncCNAg7kbom-L-226">
          <mxGeometry relative="1" as="geometry" />
        </mxCell>
        <mxCell id="jyMMwUtncCNAg7kbom-L-236" style="edgeStyle=orthogonalEdgeStyle;rounded=0;orthogonalLoop=1;jettySize=auto;html=1;exitX=1;exitY=0.5;exitDx=0;exitDy=0;entryX=0;entryY=0.5;entryDx=0;entryDy=0;" edge="1" parent="1" source="jyMMwUtncCNAg7kbom-L-229" target="jyMMwUtncCNAg7kbom-L-233">
          <mxGeometry relative="1" as="geometry" />
        </mxCell>
        <mxCell id="jyMMwUtncCNAg7kbom-L-229" value="Patient Orchestration" style="rounded=1;whiteSpace=wrap;html=1;" vertex="1" parent="1">
          <mxGeometry x="240" y="1760" width="120" height="60" as="geometry" />
        </mxCell>
        <mxCell id="jyMMwUtncCNAg7kbom-L-237" style="edgeStyle=orthogonalEdgeStyle;rounded=0;orthogonalLoop=1;jettySize=auto;html=1;exitX=1;exitY=0.5;exitDx=0;exitDy=0;entryX=0;entryY=0.5;entryDx=0;entryDy=0;" edge="1" parent="1" source="jyMMwUtncCNAg7kbom-L-233" target="jyMMwUtncCNAg7kbom-L-234">
          <mxGeometry relative="1" as="geometry" />
        </mxCell>
        <mxCell id="jyMMwUtncCNAg7kbom-L-233" value="Patient Service" style="rounded=1;whiteSpace=wrap;html=1;" vertex="1" parent="1">
          <mxGeometry x="480" y="1840" width="120" height="60" as="geometry" />
        </mxCell>
        <mxCell id="jyMMwUtncCNAg7kbom-L-234" value="Storage Broker" style="rounded=1;whiteSpace=wrap;html=1;" vertex="1" parent="1">
          <mxGeometry x="640" y="1840" width="120" height="60" as="geometry" />
        </mxCell>
        <mxCell id="jyMMwUtncCNAg7kbom-L-235" value="SQL" style="shape=cylinder3;whiteSpace=wrap;html=1;boundedLbl=1;backgroundOutline=1;size=15;" vertex="1" parent="1">
          <mxGeometry x="800" y="1840" width="80" height="60" as="geometry" />
        </mxCell>
        <mxCell id="jyMMwUtncCNAg7kbom-L-238" style="edgeStyle=orthogonalEdgeStyle;rounded=0;orthogonalLoop=1;jettySize=auto;html=1;exitX=1;exitY=0.5;exitDx=0;exitDy=0;entryX=0;entryY=0.5;entryDx=0;entryDy=0;entryPerimeter=0;" edge="1" parent="1" source="jyMMwUtncCNAg7kbom-L-234" target="jyMMwUtncCNAg7kbom-L-235">
          <mxGeometry relative="1" as="geometry" />
        </mxCell>
        <mxCell id="jyMMwUtncCNAg7kbom-L-243" value="" style="image;aspect=fixed;html=1;points=[];align=center;fontSize=12;image=img/lib/azure2/app_services/App_Services.svg;" vertex="1" parent="1">
          <mxGeometry x="-160" y="760" width="120" height="120" as="geometry" />
        </mxCell>
        <mxCell id="jyMMwUtncCNAg7kbom-L-244" value="" style="image;aspect=fixed;html=1;points=[];align=center;fontSize=12;image=img/lib/azure2/app_services/App_Services.svg;" vertex="1" parent="1">
          <mxGeometry x="-160" y="-80" width="120" height="120" as="geometry" />
        </mxCell>
      </root>
    </mxGraphModel>
  </diagram>
</mxfile>
